PathFileType	4	(X/Y/Z)	C:\Git\research_data\ESMAC_2023\simulations\TD07\pre\dynamic21_l\marker_experimental.trc
DataRate	CameraRate	NumFrames	NumMarkers	Units	OrigDataRate	OrigDataStartFrame	OrigNumFrames
200.000000	200.000000	4	54	mm	200.000000	288	385
Frame#	Time	C7			T10			CLAV			STRN			RBAK			LASI			RASI			SACR			RT2			RT3			RKNE			RS1			RS2			RS3			RANK			RHEE			RTOE			RM5D			LT1			LT2			LT3			LKNE			LS1			LS2			LS3			LANK			LHEE			LTOE			LM5D			RT1			*30			*31			*32			*33			*34			*35			*36			*37			*38			*39			*40			*41			*42			*43			*44			*45			*46			*47			*48			*49			*50			*51			*52			*53			
		X1	Y1	Z1	X2	Y2	Z2	X3	Y3	Z3	X4	Y4	Z4	X5	Y5	Z5	X6	Y6	Z6	X7	Y7	Z7	X8	Y8	Z8	X9	Y9	Z9	X10	Y10	Z10	X11	Y11	Z11	X12	Y12	Z12	X13	Y13	Z13	X14	Y14	Z14	X15	Y15	Z15	X16	Y16	Z16	X17	Y17	Z17	X18	Y18	Z18	X19	Y19	Z19	X20	Y20	Z20	X21	Y21	Z21	X22	Y22	Z22	X23	Y23	Z23	X24	Y24	Z24	X25	Y25	Z25	X26	Y26	Z26	X27	Y27	Z27	X28	Y28	Z28	X29	Y29	Z29	X30	Y30	Z30	X31	Y31	Z31	X32	Y32	Z32	X33	Y33	Z33	X34	Y34	Z34	X35	Y35	Z35	X36	Y36	Z36	X37	Y37	Z37	X38	Y38	Z38	X39	Y39	Z39	X40	Y40	Z40	X41	Y41	Z41	X42	Y42	Z42	X43	Y43	Z43	X44	Y44	Z44	X45	Y45	Z45	X46	Y46	Z46	X47	Y47	Z47	X48	Y48	Z48	X49	Y49	Z49	X50	Y50	Z50	X51	Y51	Z51	X52	Y52	Z52	X53	Y53	Z53	X54	Y54	Z54	

289	1.44	1370.841918945312	1234.5283203125	181.5942687988284	1350.21435546875	1016.654663085938	190.8320922851565	1502.215698242188	1185.420654296875	165.6849060058597	1557.212524414062	1051.27099609375	161.6042175292972	1360.268188476562	1109.773193359375	295.1578369140627	1474.772827148438	824.4381103515626	53.52190780639675	1478.702514648438	801.7396850585939	306.2922668457034	1320.565063476562	857.8889770507814	183.3967132568362	1381.449951171875	494.8353576660157	316.563415527344	1431.280151367188	497.0482482910157	325.989685058594	1423.22705078125	389.9382324218751	317.7883605957034	1319.104614257812	358.4983520507813	337.7449340820315	1252.181030273438	350.8089294433594	336.3688659667971	1279.9208984375	304.7142639160157	336.5076293945315	1101.6904296875	221.9994659423829	313.8215637207034	1050.024658203125	253.215072631836	271.9108886718752	1120.713623046875	79.97177124023445	281.2447204589846	1085.251220703125	134.6894836425782	323.737487792969	1523.859985351562	643.3687744140626	23.13579368591337	1521.126098632812	578.0928344726564	26.26434516906766	1562.085815429688	595.6060180664064	43.26588058471708	1574.712768554688	440.1286926269532	56.88481903076201	1571.399536132812	304.9228515625001	56.85570526123076	1532.937744140625	250.9190979003907	50.2765426635745	1577.794311523438	241.1112365722657	73.47538757324247	1514.873413085938	75.81629943847666	91.20724487304716	1468.885986328125	54.83895111083994	127.071716308594	1667.584228515625	53.34128570556651	125.1112365722659	1591.504516601562	37.23765563964854	74.43487548828155	nan	nan	nan	nan	nan	nan	nan	nan	nan	nan	nan	nan	nan	nan	nan	nan	nan	nan	nan	nan	nan	nan	nan	nan	nan	nan	nan	nan	nan	nan	nan	nan	nan	nan	nan	nan	nan	nan	nan	nan	nan	nan	nan	nan	nan	nan	nan	nan	nan	nan	nan	nan	nan	nan	nan	nan	nan	nan	nan	nan	nan	nan	nan	nan	nan	nan	nan	nan	nan	nan	nan	nan	nan	nan	nan	
290	1.445	1376.777954101562	1236.5390625	180.8597106933596	1356.107299804688	1018.631591796875	189.9211578369143	1508.108520507812	1187.447509765625	165.4127349853518	1563.110961914062	1053.28759765625	161.417907714844	1365.8095703125	1111.756591796875	294.3083801269534	1480.988159179688	826.1256713867189	52.66228485107449	1484.386840820312	803.9848022460939	305.6483154296878	1326.37353515625	860.0311889648439	182.2837524414065	1391.866821289062	496.3379821777344	315.5530700683596	1441.486328125	499.5711669921876	325.4605712890628	1436.209838867188	392.377410888672	317.1135559082034	1332.94873046875	360.5258178710938	336.7282714843752	1266.16015625	353.0385742187501	335.600769042969	1293.7822265625	306.7268981933594	335.8829345703127	1115.556274414062	223.1572875976563	313.414245605469	1063.169067382812	253.3773651123047	271.4207153320314	1136.827514648438	81.4427566528321	281.9638977050784	1100.641723632812	136.1434326171876	324.1118164062502	1527.780517578125	644.2197265625001	22.36537742614774	1524.917236328125	578.8455200195314	26.04207801818876	1565.486083984375	596.2556152343751	42.54347229003935	1576.010009765625	440.0627746582032	56.42687606811553	1571.87841796875	304.8707275390626	56.44496917724639	1533.0751953125	251.116424560547	50.04682159423857	1578.014404296875	240.9789428710938	73.03125762939482	1514.775024414062	75.78463745117197	91.16261291503935	1468.796997070312	54.8409309387208	127.0451660156253	1667.52001953125	53.31698608398447	125.0487289428714	1591.464477539062	37.1497802734376	74.38452911376983	nan	nan	nan	nan	nan	nan	nan	nan	nan	nan	nan	nan	nan	nan	nan	nan	nan	nan	nan	nan	nan	nan	nan	nan	nan	nan	nan	nan	nan	nan	nan	nan	nan	nan	nan	nan	nan	nan	nan	nan	nan	nan	nan	nan	nan	nan	nan	nan	nan	nan	nan	nan	nan	nan	nan	nan	nan	nan	nan	nan	nan	nan	nan	nan	nan	nan	nan	nan	nan	nan	nan	nan	nan	nan	nan	
291	1.45	1382.653076171875	1238.571655273438	180.1382598876956	1361.9580078125	1020.621215820313	188.9860992431643	1513.935791015625	1189.510864257812	165.1687927246097	1568.953979492188	1055.344604492188	161.2418212890628	1371.280151367188	1113.748168945312	293.4460449218752	1487.182495117188	827.8230590820314	51.79436492919949	1490.073486328125	806.3187866210939	304.9813537597659	1332.162231445312	862.2009277343751	181.1696777343753	1402.248779296875	497.994354248047	314.573181152344	1451.656494140625	502.2333068847657	324.9497375488284	1449.094970703125	395.0422363281251	316.4404296875003	1346.718505859375	362.6514892578126	335.6775817871096	1280.06298828125	355.2934265136719	334.7821960449221	1307.64697265625	308.7839965820313	335.2638244628909	1129.581420898438	223.9961547851563	312.9741210937502	1076.429565429688	253.1082000732422	270.8874511718752	1153.354614257812	82.67372894287116	282.6043701171877	1116.351440429688	137.2621154785157	324.4327087402346	1531.675048828125	645.1009521484376	21.65461158752469	1528.533935546875	579.6710205078126	25.85299110412626	1568.892822265625	596.9304199218751	41.94805908203154	1577.247436523438	440.0403442382814	56.08545684814482	1572.328735351562	304.8680725097657	56.11810684204131	1533.211791992188	251.3525390625001	49.86436843872099	1578.214233398438	240.889862060547	72.65798950195341	1514.6806640625	75.76496887207041	91.1307907104495	1468.71630859375	54.84376525878915	127.0197219848636	1667.45458984375	53.30124282836924	125.0046386718753	1591.426513671875	37.07586669921885	74.34624481201202	nan	nan	nan	nan	nan	nan	nan	nan	nan	nan	nan	nan	nan	nan	nan	nan	nan	nan	nan	nan	nan	nan	nan	nan	nan	nan	nan	nan	nan	nan	nan	nan	nan	nan	nan	nan	nan	nan	nan	nan	nan	nan	nan	nan	nan	nan	nan	nan	nan	nan	nan	nan	nan	nan	nan	nan	nan	nan	nan	nan	nan	nan	nan	nan	nan	nan	nan	nan	nan	nan	nan	nan	nan	nan	nan	
292	1.455	1388.470947265625	1240.617919921875	179.4283905029299	1367.7705078125	1022.615539550781	188.028503417969	1519.701904296875	1191.6025390625	164.9502410888675	1574.746337890625	1057.43359375	161.0724182128909	1376.685302734375	1115.740844726562	292.5699768066409	1493.351928710938	829.5247802734376	50.91689300537137	1495.772705078125	808.7298583984376	304.2860412597659	1337.936279296875	864.3872070312501	180.0611419677737	1412.5986328125	499.7930603027345	313.6266784667972	1461.802490234375	505.0191955566407	324.4541931152347	1461.8671875	397.9109497070314	315.7732849121097	1360.383911132812	364.8494873046876	334.6112976074221	1293.850830078125	357.5260314941407	333.9282226562502	1321.4921875	310.8561096191407	334.6497802734377	1143.754272460938	224.5094757080079	312.5032958984377	1089.807373046875	252.4097442626954	270.3139953613284	1170.264526367188	83.67076873779304	283.1641845703127	1132.3525390625	138.0476684570313	324.6960144042971	1535.525024414062	645.9542846679689	20.99699974060087	1531.915893554688	580.5225219726564	25.69054603576688	1572.291748046875	597.5540771484376	41.4604263305667	1578.441772460938	440.0513916015626	55.86176300048857	1572.766845703125	304.9060668945314	55.87910842895537	1533.366333007812	251.6140594482423	49.73058319091825	1578.407592773438	240.8373260498048	72.36203765869169	1514.59228515625	75.75543212890635	91.11278533935575	1468.644897460938	54.84627532958994	126.9970703125003	1667.388671875	53.29419326782237	124.9785079956058	1591.390258789062	37.01705551147471	74.32064819335967	nan	nan	nan	nan	nan	nan	nan	nan	nan	nan	nan	nan	nan	nan	nan	nan	nan	nan	nan	nan	nan	nan	nan	nan	nan	nan	nan	nan	nan	nan	nan	nan	nan	nan	nan	nan	nan	nan	nan	nan	nan	nan	nan	nan	nan	nan	nan	nan	nan	nan	nan	nan	nan	nan	nan	nan	nan	nan	nan	nan	nan	nan	nan	nan	nan	nan	nan	nan	nan	nan	nan	nan	nan	nan	nan	
